<svg aria-hidden="true" style="position: absolute; width: 0; height: 0; overflow: hidden;" version="1.1" xmlns="http://www.w3.org/2000/svg" xmlns:xlink="http://www.w3.org/1999/xlink">
<defs>
<symbol id="icon-logo-desktop" viewBox="0 10 45 10">
<path fill="#231f20" style="fill: var(--website-secondary-color)" d="M11.195 16.653c0.026 0.062 0.077 0.103 0.152 0.125s0.194 0.033 0.356 0.033c0.009 0 0.013 0.013 0.013 0.040s-0.004 0.040-0.013 0.040c-0.136 0-0.244-0.002-0.323-0.007l-0.475-0.007-0.455 0.007c-0.084 0.004-0.196 0.007-0.337 0.007-0.013 0-0.020-0.013-0.020-0.040s0.007-0.040 0.020-0.040c0.163 0 0.282-0.011 0.356-0.033s0.126-0.065 0.155-0.129c0.029-0.064 0.043-0.162 0.043-0.294v-3.056c0-0.132-0.014-0.229-0.043-0.29s-0.080-0.104-0.155-0.129c-0.075-0.024-0.194-0.036-0.356-0.036-0.013 0-0.020-0.013-0.020-0.040s0.007-0.040 0.020-0.040l0.337 0.007c0.185 0.009 0.337 0.013 0.455 0.013 0.128 0 0.288-0.004 0.482-0.013l0.317-0.007c0.009 0 0.013 0.013 0.013 0.040s-0.004 0.040-0.013 0.040c-0.158 0-0.276 0.013-0.353 0.040s-0.129 0.072-0.155 0.135c-0.026 0.064-0.040 0.162-0.040 0.294v3.043c0 0.136 0.013 0.235 0.040 0.297z"></path>
<path fill="#231f20" style="fill: var(--website-secondary-color)" d="M16.831 12.805c0 0.026-0.007 0.040-0.020 0.040-0.18 0-0.314 0.054-0.399 0.162s-0.129 0.276-0.129 0.505v3.458c0 0.013-0.011 0.022-0.033 0.026s-0.037 0.002-0.046-0.007l-3.095-3.709v2.871c0 0.229 0.042 0.396 0.125 0.502s0.213 0.158 0.389 0.158c0.013 0 0.020 0.013 0.020 0.040s-0.007 0.040-0.020 0.040c-0.106 0-0.189-0.002-0.251-0.007l-0.337-0.007-0.35 0.007c-0.066 0.004-0.161 0.007-0.284 0.007-0.009 0-0.013-0.013-0.013-0.040s0.004-0.040 0.013-0.040c0.189 0 0.327-0.053 0.413-0.158s0.129-0.273 0.129-0.502v-3.043c-0.18-0.176-0.363-0.264-0.548-0.264-0.013 0-0.020-0.013-0.020-0.040s0.007-0.040 0.020-0.040l0.244 0.007c0.053 0.004 0.128 0.007 0.224 0.007l0.31-0.007c0.035-0.004 0.081-0.007 0.139-0.007 0.035 0 0.060 0.008 0.076 0.023s0.041 0.050 0.076 0.102c0.053 0.079 0.106 0.152 0.158 0.218l2.495 3.023v-2.62c0-0.229-0.040-0.397-0.119-0.505s-0.209-0.162-0.389-0.162c-0.009 0-0.013-0.013-0.013-0.040s0.004-0.040 0.013-0.040l0.257 0.007c0.141 0.009 0.253 0.013 0.337 0.013s0.196-0.004 0.337-0.013l0.271-0.007c0.013 0 0.020 0.013 0.020 0.040z"></path>
<path fill="#231f20" style="fill: var(--website-secondary-color)" d="M18.468 16.653c0.026 0.062 0.077 0.103 0.152 0.125s0.194 0.033 0.356 0.033c0.009 0 0.013 0.013 0.013 0.040s-0.004 0.040-0.013 0.040c-0.136 0-0.244-0.002-0.323-0.007l-0.475-0.007-0.455 0.007c-0.084 0.004-0.196 0.007-0.337 0.007-0.013 0-0.020-0.013-0.020-0.040s0.007-0.040 0.020-0.040c0.163 0 0.282-0.011 0.356-0.033s0.126-0.065 0.155-0.129c0.029-0.064 0.043-0.162 0.043-0.294v-3.056c0-0.132-0.014-0.229-0.043-0.29s-0.080-0.104-0.155-0.129c-0.075-0.024-0.194-0.036-0.356-0.036-0.013 0-0.020-0.013-0.020-0.040s0.007-0.040 0.020-0.040l0.337 0.007c0.185 0.009 0.337 0.013 0.455 0.013 0.128 0 0.288-0.004 0.482-0.013l0.317-0.007c0.009 0 0.013 0.013 0.013 0.040s-0.004 0.040-0.013 0.040c-0.158 0-0.276 0.013-0.353 0.040s-0.129 0.072-0.155 0.135c-0.026 0.064-0.040 0.162-0.040 0.294v3.043c0 0.136 0.013 0.235 0.040 0.297z"></path>
<path fill="#231f20" style="fill: var(--website-secondary-color)" d="M20.534 13.96c0.084 0.128 0.185 0.235 0.304 0.323s0.286 0.196 0.502 0.323c0.224 0.136 0.4 0.253 0.528 0.35s0.236 0.218 0.327 0.363c0.090 0.145 0.135 0.317 0.135 0.515 0 0.216-0.054 0.409-0.162 0.581s-0.265 0.307-0.472 0.406c-0.207 0.099-0.451 0.149-0.733 0.149-0.356 0-0.673-0.079-0.95-0.238-0.022-0.013-0.037-0.029-0.046-0.046s-0.015-0.044-0.020-0.079l-0.073-0.924c-0.004-0.018 0.006-0.029 0.030-0.033s0.038 0.002 0.043 0.020c0.088 0.326 0.227 0.604 0.416 0.835s0.44 0.347 0.752 0.347c0.216 0 0.396-0.057 0.541-0.172s0.218-0.301 0.218-0.561c0-0.198-0.044-0.368-0.132-0.511s-0.195-0.264-0.32-0.363-0.296-0.212-0.511-0.34c-0.216-0.136-0.383-0.25-0.502-0.34s-0.22-0.205-0.304-0.343c-0.084-0.139-0.125-0.303-0.125-0.492 0-0.224 0.059-0.415 0.178-0.571s0.275-0.273 0.469-0.35c0.194-0.077 0.398-0.115 0.614-0.115 0.273 0 0.535 0.051 0.785 0.152 0.066 0.031 0.099 0.070 0.099 0.119l0.040 0.792c0 0.018-0.012 0.029-0.036 0.033s-0.039-0.002-0.043-0.020c-0.044-0.233-0.143-0.453-0.297-0.66s-0.376-0.31-0.667-0.31c-0.233 0-0.41 0.068-0.531 0.205s-0.181 0.308-0.181 0.515c0 0.167 0.042 0.315 0.125 0.442z"></path>
<path fill="#231f20" style="fill: var(--website-secondary-color)" d="M23.933 13.96c0.084 0.128 0.185 0.235 0.304 0.323s0.286 0.196 0.502 0.323c0.224 0.136 0.4 0.253 0.528 0.35s0.236 0.218 0.327 0.363c0.090 0.145 0.135 0.317 0.135 0.515 0 0.216-0.054 0.409-0.162 0.581s-0.265 0.307-0.472 0.406c-0.207 0.099-0.451 0.149-0.733 0.149-0.356 0-0.673-0.079-0.95-0.238-0.022-0.013-0.037-0.029-0.046-0.046s-0.015-0.044-0.020-0.079l-0.073-0.924c-0.004-0.018 0.005-0.029 0.030-0.033s0.038 0.002 0.043 0.020c0.088 0.326 0.227 0.604 0.416 0.835s0.44 0.347 0.752 0.347c0.216 0 0.396-0.057 0.541-0.172s0.218-0.301 0.218-0.561c0-0.198-0.044-0.368-0.132-0.511s-0.195-0.264-0.32-0.363-0.296-0.212-0.511-0.34c-0.216-0.136-0.383-0.25-0.502-0.34s-0.22-0.205-0.303-0.343c-0.084-0.139-0.125-0.303-0.125-0.492 0-0.224 0.059-0.415 0.178-0.571s0.275-0.273 0.469-0.35c0.194-0.077 0.398-0.115 0.614-0.115 0.273 0 0.535 0.051 0.785 0.152 0.066 0.031 0.099 0.070 0.099 0.119l0.040 0.792c0 0.018-0.012 0.029-0.036 0.033s-0.039-0.002-0.043-0.020c-0.044-0.233-0.143-0.453-0.297-0.66s-0.376-0.31-0.667-0.31c-0.233 0-0.41 0.068-0.531 0.205s-0.181 0.308-0.181 0.515c0 0.167 0.042 0.315 0.125 0.442z"></path>
<path fill="#231f20" style="fill: var(--website-secondary-color)" d="M27.501 16.653c0.026 0.062 0.077 0.103 0.152 0.125s0.194 0.033 0.356 0.033c0.009 0 0.013 0.013 0.013 0.040s-0.004 0.040-0.013 0.040c-0.136 0-0.244-0.002-0.323-0.007l-0.475-0.007-0.455 0.007c-0.084 0.004-0.196 0.007-0.337 0.007-0.013 0-0.020-0.013-0.020-0.040s0.007-0.040 0.020-0.040c0.163 0 0.282-0.011 0.356-0.033s0.126-0.065 0.155-0.129c0.029-0.064 0.043-0.162 0.043-0.294v-3.056c0-0.132-0.014-0.229-0.043-0.29s-0.080-0.104-0.155-0.129c-0.075-0.024-0.194-0.036-0.356-0.036-0.013 0-0.020-0.013-0.020-0.040s0.007-0.040 0.020-0.040l0.337 0.007c0.185 0.009 0.337 0.013 0.455 0.013 0.128 0 0.288-0.004 0.482-0.013l0.317-0.007c0.009 0 0.013 0.013 0.013 0.040s-0.004 0.040-0.013 0.040c-0.158 0-0.276 0.013-0.353 0.040s-0.129 0.072-0.155 0.135c-0.026 0.064-0.040 0.162-0.040 0.294v3.043c0 0.136 0.013 0.235 0.040 0.297z"></path>
<path fill="#231f20" style="fill: var(--website-secondary-color)" d="M33.856 16.851c0 0.026-0.007 0.040-0.020 0.040-0.141 0-0.253-0.002-0.337-0.007l-0.455-0.007-0.442 0.007c-0.070 0.004-0.169 0.007-0.297 0.007-0.009 0-0.013-0.013-0.013-0.040s0.004-0.040 0.013-0.040c0.15 0 0.26-0.012 0.33-0.036s0.118-0.067 0.142-0.129c0.024-0.062 0.032-0.158 0.023-0.29l-0.125-2.937-1.478 3.425c-0.009 0.018-0.026 0.026-0.053 0.026-0.022 0-0.042-0.009-0.059-0.026l-1.63-3.412-0.053 2.719c-0.004 0.233 0.036 0.402 0.122 0.505s0.23 0.155 0.432 0.155c0.009 0 0.013 0.013 0.013 0.040s-0.004 0.040-0.013 0.040c-0.123 0-0.218-0.002-0.284-0.007l-0.356-0.007-0.356 0.007c-0.062 0.004-0.15 0.007-0.264 0.007-0.013 0-0.020-0.013-0.020-0.040s0.007-0.040 0.020-0.040c0.18 0 0.315-0.053 0.403-0.158s0.134-0.273 0.139-0.502l0.059-3.003c-0.132-0.202-0.317-0.304-0.554-0.304-0.013 0-0.020-0.013-0.020-0.040s0.007-0.040 0.020-0.040l0.257 0.007c0.048 0.004 0.112 0.007 0.191 0.007 0.088 0 0.162-0.002 0.221-0.007s0.107-0.007 0.142-0.007c0.057 0 0.103 0.020 0.139 0.059s0.090 0.134 0.165 0.284l1.472 3.036 1.399-3.214c0.048-0.11 0.114-0.165 0.198-0.165 0.022 0 0.055 0.002 0.099 0.007s0.101 0.007 0.172 0.007l0.33-0.007c0.048-0.004 0.123-0.007 0.224-0.007 0.009 0 0.013 0.013 0.013 0.040s-0.004 0.040-0.013 0.040c-0.22 0-0.377 0.034-0.472 0.102s-0.14 0.19-0.135 0.366l0.139 3.043c0.009 0.136 0.026 0.235 0.053 0.297s0.076 0.103 0.149 0.125c0.073 0.022 0.19 0.033 0.353 0.033 0.013 0 0.020 0.013 0.020 0.040z"></path>
<path fill="#231f20" style="fill: var(--website-secondary-color)" d="M37.346 16.607c0.231-0.145 0.414-0.357 0.548-0.637s0.201-0.613 0.201-1c0-0.409-0.074-0.774-0.221-1.096s-0.358-0.572-0.63-0.752c-0.273-0.18-0.59-0.271-0.95-0.271-0.471 0-0.838 0.155-1.102 0.465s-0.396 0.738-0.396 1.284c0 0.414 0.075 0.79 0.224 1.129s0.358 0.606 0.627 0.802c0.268 0.196 0.574 0.294 0.917 0.294 0.29 0 0.551-0.073 0.782-0.218zM35.24 16.683c-0.319-0.191-0.565-0.451-0.739-0.779s-0.261-0.685-0.261-1.072c0-0.453 0.114-0.841 0.343-1.165s0.522-0.566 0.881-0.729c0.358-0.163 0.725-0.244 1.099-0.244 0.418 0 0.785 0.098 1.102 0.294s0.56 0.454 0.729 0.776c0.169 0.321 0.254 0.662 0.254 1.023 0 0.4-0.106 0.768-0.317 1.102s-0.494 0.598-0.848 0.792c-0.354 0.194-0.738 0.29-1.152 0.29-0.409 0-0.773-0.096-1.092-0.287z"></path>
<path fill="#231f20" style="fill: var(--website-secondary-color)" d="M6.052 11.052c-0.297 0.013-0.598 0.019-0.894 0.019-0.121 0-0.27-0.006-0.443-0.019l-0.318-0.009c0 0.001-0.005 0.007-0.005 0.033 0 0.028 0.006 0.034 0.006 0.034h0.003c0.185 0 0.339 0.054 0.458 0.16 0.118 0.105 0.235 0.28 0.348 0.519l2.339 5.082c0.011 0.014 0.044 0.024 0.092 0.024 0.067 0 0.089-0.013 0.090-0.020l0.545-1.599c0.379-1.117 0.657-1.92 0.827-2.386 0.169-0.463 0.315-0.799 0.434-1 0.123-0.207 0.253-0.312 0.386-0.312 0.080 0 0.163 0.030 0.248 0.089 0.010 0.005 0.040 0.024 0.094 0.061 0.046 0.032 0.114 0.048 0.203 0.048 0.112 0 0.207-0.034 0.28-0.102s0.11-0.158 0.11-0.269c0-0.131-0.047-0.242-0.139-0.331s-0.24-0.134-0.44-0.134c-0.267 0-0.492 0.111-0.668 0.33-0.179 0.222-0.369 0.604-0.565 1.135-0.196 0.533-0.53 1.517-0.991 2.925l-0.206 0.628-1.941-4.148c-0.058-0.128-0.087-0.235-0.087-0.32 0-0.252 0.207-0.38 0.615-0.38 0-0 0.005-0.007 0.005-0.033 0-0.028-0.006-0.034-0.006-0.034-0.154 0-0.283 0.004-0.383 0.010z"></path>
<path fill="#231f20" style="fill: var(--website-secondary-color)" d="M40.89 12.64c0 0.011-0.002 0.016-0.005 0.016l-0.174-0.003-0.185 0.003c-0.002 0-0.003-0.005-0.003-0.016s0.001-0.016 0.003-0.016c0.055 0 0.091-0.006 0.107-0.019s0.022-0.039 0.019-0.078l-0.016-0.486-0.266 0.601c-0.002 0.005-0.007 0.008-0.016 0.008s-0.015-0.003-0.019-0.008l-0.293-0.566-0.013 0.413c-0.002 0.047 0.004 0.081 0.019 0.102s0.038 0.032 0.070 0.032c0.004 0 0.005 0.005 0.005 0.016s-0.002 0.016-0.005 0.016l-0.121-0.003-0.134 0.003c-0.002 0-0.003-0.005-0.003-0.016s0.001-0.016 0.003-0.016c0.039 0 0.068-0.011 0.087-0.032s0.029-0.055 0.031-0.102l0.016-0.491c-0.032-0.043-0.072-0.064-0.118-0.064-0.004 0-0.005-0.005-0.005-0.016s0.002-0.016 0.005-0.016c0.016 0 0.032 0.001 0.048 0.003s0.030 0.003 0.040 0.003c0.020 0 0.037-0.001 0.052-0.003s0.026-0.003 0.034-0.003c0.014 0 0.028 0.006 0.040 0.017s0.027 0.034 0.043 0.066l0.252 0.502 0.239-0.542c0.004-0.012 0.010-0.023 0.020-0.031s0.020-0.012 0.031-0.012c0.005 0 0.015 0.001 0.028 0.003s0.032 0.003 0.055 0.003c0.025 0 0.047-0.001 0.064-0.003s0.035-0.003 0.051-0.003c0.004 0 0.005 0.005 0.005 0.016s-0.002 0.016-0.005 0.016c-0.043 0-0.074 0.007-0.093 0.021s-0.027 0.044-0.026 0.089l0.016 0.483c0.002 0.039 0.009 0.065 0.023 0.078s0.043 0.019 0.087 0.019c0.004 0 0.005 0.005 0.005 0.016zM39.809 11.856c0.010 0 0.015 0.002 0.015 0.005-0.007 0.15-0.011 0.232-0.011 0.244 0 0.004-0.005 0.005-0.015 0.005s-0.015-0.002-0.015-0.005c0-0.063-0.011-0.107-0.034-0.133s-0.060-0.039-0.111-0.039c-0.039 0-0.065 0.007-0.078 0.020s-0.019 0.039-0.019 0.076v0.497c0 0.039 0.008 0.065 0.023 0.078s0.050 0.019 0.103 0.019c0.004 0 0.005 0.005 0.005 0.016s-0.002 0.016-0.005 0.016l-0.199-0.003-0.193 0.003c-0.002 0-0.003-0.005-0.003-0.016s0.001-0.016 0.003-0.016c0.052 0 0.086-0.006 0.102-0.019s0.024-0.039 0.024-0.078v-0.499c0-0.039-0.006-0.065-0.019-0.076s-0.038-0.017-0.078-0.017c-0.054 0-0.093 0.013-0.118 0.038s-0.041 0.070-0.048 0.134c0 0.004-0.005 0.005-0.016 0.005s-0.016-0.002-0.016-0.005c0.004-0.020 0.007-0.055 0.011-0.105s0.005-0.094 0.005-0.132c0-0.005 0.005-0.008 0.016-0.009s0.016 0.002 0.016 0.009c0 0.013 0.006 0.021 0.019 0.024s0.030 0.005 0.054 0.005l0.242 0.003 0.215-0.003c0.036 0 0.062-0.002 0.078-0.007s0.026-0.015 0.029-0.031c0.002-0.004 0.008-0.005 0.017-0.005z"></path>
<path fill="#231f20" style="fill: var(--website-secondary-color)" d="M10.461 19.177c0.206 0 0.269-0.092 0.269-0.275s-0.053-0.273-0.265-0.273h-0.216v0.547zM10.093 18.525h0.377c0.311 0 0.413 0.143 0.413 0.377 0 0.168-0.049 0.313-0.23 0.348l0.255 0.758h-0.152l-0.245-0.729h-0.261v0.729h-0.156z"></path>
<path fill="#231f20" style="fill: var(--website-secondary-color)" d="M11.431 18.525h0.603v0.108h-0.444v0.557h0.362v0.102h-0.362v0.611h0.449v0.104h-0.607z"></path>
<path fill="#231f20" style="fill: var(--website-secondary-color)" d="M12.478 19.623l0.138-0.037c0.023 0.183 0.076 0.326 0.28 0.326 0.148 0 0.235-0.064 0.235-0.214 0-0.132-0.078-0.214-0.204-0.32l-0.294-0.251c-0.107-0.090-0.152-0.183-0.152-0.298 0-0.205 0.15-0.319 0.377-0.319 0.241 0 0.377 0.102 0.399 0.375l-0.134 0.031c-0.016-0.187-0.074-0.297-0.265-0.297-0.138 0-0.235 0.062-0.235 0.196 0 0.081 0.031 0.143 0.117 0.216l0.294 0.247c0.13 0.11 0.243 0.242 0.243 0.41 0 0.221-0.158 0.337-0.383 0.337-0.272 0-0.397-0.161-0.416-0.403z"></path>
<path fill="#231f20" style="fill: var(--website-secondary-color)" d="M13.98 18.633h-0.315v-0.108h0.778v0.108h-0.307v1.375h-0.156z"></path>
<path fill="#231f20" style="fill: var(--website-secondary-color)" d="M15.385 19.51l-0.177-0.8-0.177 0.8zM15.123 18.525h0.165l0.354 1.483h-0.154l-0.082-0.397h-0.397l-0.084 0.397h-0.152z"></path>
<path fill="#231f20" style="fill: var(--website-secondary-color)" d="M16.112 19.603v-1.078h0.152v1.082c0 0.174 0.049 0.308 0.274 0.308 0.214 0 0.274-0.134 0.274-0.308v-1.082h0.15v1.078c0 0.247-0.095 0.423-0.424 0.423-0.341 0-0.426-0.176-0.426-0.423z"></path>
<path fill="#231f20" style="fill: var(--website-secondary-color)" d="M17.892 19.177c0.206 0 0.269-0.092 0.269-0.275s-0.053-0.273-0.265-0.273h-0.216v0.547zM17.523 18.525h0.377c0.311 0 0.413 0.143 0.413 0.377 0 0.168-0.049 0.313-0.23 0.348l0.255 0.758h-0.152l-0.245-0.729h-0.261v0.729h-0.156z"></path>
<path fill="#231f20" style="fill: var(--website-secondary-color)" d="M19.387 19.51l-0.177-0.8-0.177 0.8zM19.125 18.525h0.165l0.354 1.483h-0.154l-0.082-0.397h-0.397l-0.084 0.397h-0.152z"></path>
<path fill="#231f20" style="fill: var(--website-secondary-color)" d="M20.133 18.525h0.113l0.531 1.152v-1.152h0.136v1.483h-0.111l-0.533-1.164v1.164h-0.136z"></path>
<path fill="#231f20" style="fill: var(--website-secondary-color)" d="M21.696 18.633h-0.315v-0.108h0.778v0.108h-0.307v1.375h-0.156z"></path>
<path fill="#231f20" style="fill: var(--website-secondary-color)" d="M23.735 18.663c0-0.106-0.085-0.163-0.213-0.163-0.152 0-0.219 0.1-0.219 0.217 0 0.122 0.058 0.235 0.157 0.39 0.143-0.128 0.275-0.287 0.275-0.444zM23.773 19.775l-0.354-0.49c-0.139 0.137-0.19 0.255-0.19 0.377 0 0.117 0.063 0.245 0.253 0.245 0.116 0 0.206-0.048 0.291-0.131zM23.064 19.661c0-0.167 0.090-0.309 0.291-0.48-0.128-0.191-0.213-0.311-0.213-0.462 0-0.213 0.148-0.341 0.385-0.341 0.222 0 0.369 0.108 0.369 0.287 0 0.181-0.168 0.359-0.378 0.526l0.349 0.49c0.081-0.1 0.134-0.273 0.141-0.388h0.159c0 0.145-0.085 0.355-0.201 0.482 0.065 0.076 0.13 0.104 0.206 0.104v0.143c-0.016 0-0.029-0.002-0.043-0.002-0.107-0.008-0.192-0.076-0.262-0.149-0.083 0.086-0.215 0.157-0.385 0.157-0.275 0-0.419-0.165-0.419-0.367z"></path>
<path fill="#231f20" style="fill: var(--website-secondary-color)" d="M25.031 18.525h0.134l0.22 1.205 0.251-1.183h0.13l0.257 1.185 0.204-1.206h0.132l-0.269 1.483h-0.121l-0.265-1.223-0.261 1.223h-0.128z"></path>
<path fill="#231f20" style="fill: var(--website-secondary-color)" d="M26.868 18.525h0.156v1.483h-0.156z"></path>
<path fill="#231f20" style="fill: var(--website-secondary-color)" d="M27.608 18.525h0.113l0.531 1.152v-1.152h0.136v1.483h-0.111l-0.533-1.164v1.164h-0.136z"></path>
<path fill="#231f20" style="fill: var(--website-secondary-color)" d="M28.922 18.525h0.603v0.108h-0.444v0.557h0.362v0.102h-0.362v0.611h0.448v0.104h-0.607z"></path>
<path fill="#231f20" style="fill: var(--website-secondary-color)" d="M30.782 19.903c0.216 0 0.272-0.101 0.272-0.324 0-0.179-0.066-0.308-0.267-0.308h-0.228v0.632zM30.784 19.164c0.189 0 0.241-0.106 0.241-0.269 0-0.179-0.066-0.262-0.319-0.262h-0.148v0.531zM30.401 18.525h0.358c0.304 0 0.407 0.146 0.407 0.37 0 0.143-0.049 0.284-0.212 0.313 0.195 0.048 0.251 0.211 0.251 0.372 0 0.236-0.080 0.428-0.393 0.428h-0.411z"></path>
<path fill="#231f20" style="fill: var(--website-secondary-color)" d="M32.244 19.51l-0.177-0.8-0.177 0.8zM31.983 18.525h0.165l0.354 1.483h-0.154l-0.082-0.397h-0.397l-0.084 0.397h-0.152z"></path>
<path fill="#231f20" style="fill: var(--website-secondary-color)" d="M33.359 19.177c0.206 0 0.269-0.092 0.269-0.275s-0.053-0.273-0.265-0.273h-0.216v0.547zM32.991 18.525h0.377c0.311 0 0.413 0.143 0.413 0.377 0 0.168-0.049 0.313-0.23 0.348l0.255 0.758h-0.152l-0.245-0.729h-0.261v0.729h-0.156z"></path>
<path fill="#6d0f32" style="fill: var(--color2, #6d0f32)" d="M39.171 16.88c-0.062-0.059-0.093-0.141-0.093-0.246 0-0.095 0.031-0.171 0.093-0.228s0.142-0.085 0.242-0.085c0.104 0 0.185 0.027 0.242 0.082s0.086 0.132 0.086 0.231c0 0.104-0.029 0.186-0.086 0.246s-0.138 0.089-0.242 0.089c-0.1 0-0.18-0.030-0.242-0.089z"></path>
</symbol>
<symbol id="icon-logo-mobile" viewBox="0 0 34 32">
<path d="M8.674 0.597c-1.553 0.066-3.124 0.1-4.671 0.1-0.631 0-1.41-0.034-2.316-0.1l-1.663-0.049c0.002 0.003-0.024 0.039-0.024 0.176 0 0.148 0.030 0.179 0.031 0.179h0.013c0.965 0 1.772 0.287 2.395 0.849 0.615 0.556 1.227 1.482 1.821 2.751l12.224 26.924c0.060 0.076 0.23 0.128 0.48 0.128 0.352 0 0.463-0.070 0.472-0.107l2.85-8.47c1.979-5.92 3.432-10.174 4.321-12.642 0.882-2.45 1.645-4.232 2.268-5.295 0.641-1.096 1.32-1.652 2.018-1.652 0.416 0 0.852 0.158 1.296 0.47 0.054 0.026 0.21 0.128 0.491 0.323 0.24 0.168 0.596 0.253 1.061 0.253 0.588 0 1.081-0.182 1.465-0.541 0.381-0.355 0.575-0.835 0.575-1.427 0-0.692-0.244-1.282-0.724-1.754-0.483-0.473-1.255-0.712-2.297-0.712-1.395 0-2.569 0.588-3.49 1.746-0.936 1.178-1.929 3.2-2.95 6.012-1.026 2.824-2.769 8.038-5.178 15.497l-1.077 3.329-10.143-21.977c-0.301-0.678-0.453-1.247-0.453-1.694 0-1.336 1.081-2.013 3.213-2.013 0.001-0.002 0.027-0.038 0.027-0.177 0-0.148-0.030-0.179-0.030-0.179-0.803 0.002-1.478 0.019-2.002 0.052z"></path>
<path d="M31.825 31.424c-0.18-0.175-0.27-0.416-0.27-0.723 0-0.28 0.090-0.503 0.27-0.671s0.415-0.252 0.706-0.252c0.304 0 0.54 0.080 0.706 0.241s0.249 0.388 0.249 0.681c0 0.307-0.083 0.549-0.249 0.723s-0.402 0.262-0.706 0.262c-0.29 0-0.526-0.088-0.706-0.262z"></path>
</symbol>
<symbol id="icon-google" viewBox="0 0 32 32">
<path stroke-linejoin="round" stroke-linecap="round" stroke-miterlimit="4" stroke-width="0.6707" d="M28.71 16.249c0-1.093-0.089-1.89-0.28-2.717h-12.476v4.931h7.323c-0.148 1.225-0.945 3.071-2.717 4.311l-0.025 0.165 3.945 3.056 0.273 0.027c2.51-2.318 3.957-5.728 3.957-9.774"></path>
<path stroke-linejoin="round" stroke-linecap="round" stroke-miterlimit="4" stroke-width="0.6707" d="M15.954 29.242c3.588 0 6.599-1.181 8.799-3.219l-4.193-3.248c-1.122 0.782-2.628 1.329-4.606 1.329-3.514 0-6.496-2.318-7.559-5.522l-0.156 0.013-4.102 3.174-0.054 0.149c2.185 4.341 6.673 7.323 11.87 7.323"></path>
<path stroke-linejoin="round" stroke-linecap="round" stroke-miterlimit="4" stroke-width="0.6707" d="M8.395 18.582c-0.28-0.827-0.443-1.713-0.443-2.628s0.162-1.801 0.428-2.628l-0.007-0.176-4.153-3.225-0.136 0.065c-0.901 1.801-1.417 3.824-1.417 5.965s0.517 4.163 1.417 5.965l4.311-3.337"></path>
<path stroke-linejoin="round" stroke-linecap="round" stroke-miterlimit="4" stroke-width="0.6707" d="M15.954 7.804c2.495 0 4.178 1.078 5.138 1.978l3.75-3.661c-2.303-2.141-5.3-3.455-8.888-3.455-5.197 0-9.685 2.982-11.87 7.323l4.296 3.337c1.078-3.204 4.060-5.522 7.574-5.522"></path>
<path d="M28.71 16.249c0-1.093-0.089-1.89-0.28-2.717h-12.476v4.931h7.323c-0.148 1.225-0.945 3.071-2.717 4.311l-0.025 0.165 3.945 3.056 0.273 0.027c2.51-2.318 3.957-5.728 3.957-9.774z"></path>
<path d="M15.954 29.242c3.588 0 6.599-1.181 8.799-3.219l-4.193-3.248c-1.122 0.782-2.628 1.329-4.606 1.329-3.514 0-6.496-2.318-7.559-5.522l-0.156 0.013-4.102 3.174-0.054 0.149c2.185 4.341 6.673 7.323 11.87 7.323z"></path>
<path d="M8.395 18.582c-0.28-0.827-0.443-1.713-0.443-2.628s0.162-1.801 0.428-2.628l-0.007-0.176-4.153-3.225-0.136 0.065c-0.901 1.801-1.417 3.824-1.417 5.965s0.517 4.163 1.417 5.965l4.311-3.337z"></path>
<path d="M15.954 7.804c2.495 0 4.178 1.078 5.138 1.978l3.75-3.661c-2.303-2.141-5.3-3.455-8.888-3.455-5.197 0-9.685 2.982-11.87 7.323l4.296 3.337c1.078-3.204 4.060-5.522 7.574-5.522z"></path>
</symbol>
<symbol id="icon-facebook" viewBox="0 0 32 32">
<path d="M16 1.92c-7.769 0-14.080 6.311-14.080 14.080 0 7.052 5.202 12.889 11.976 13.906l0.735 0.111v-11.095h-3.326v-2.253h3.326v-2.991c0-1.842 0.442-3.055 1.174-3.816s1.813-1.145 3.317-1.145c1.203 0 1.671 0.073 2.116 0.127v1.844h-1.566c-0.889 0-1.618 0.496-1.996 1.156s-0.496 1.449-0.496 2.252v2.571h3.919l-0.349 2.253h-3.57v11.114l0.726-0.099c6.871-0.932 12.174-6.815 12.174-13.936 0-7.769-6.311-14.080-14.080-14.080zM16 3.2c7.077 0 12.8 5.723 12.8 12.8 0 6.227-4.457 11.348-10.34 12.501v-8.3h3.387l0.744-4.813h-4.131v-1.291c0-0.664 0.122-1.259 0.326-1.616s0.402-0.512 0.886-0.512h2.846v-4.282l-0.555-0.075c-0.384-0.052-1.26-0.174-2.841-0.174-1.73 0-3.215 0.471-4.24 1.537s-1.531 2.654-1.531 4.704v1.711h-3.326v4.813h3.326v8.259c-5.788-1.226-10.151-6.302-10.151-12.461 0-7.077 5.723-12.8 12.8-12.8z"></path>
</symbol>
<symbol id="icon-instagram" viewBox="0 0 32 32">
<path d="M10.24 1.92c-4.587 0-8.32 3.733-8.32 8.32v11.52c0 4.587 3.733 8.32 8.32 8.32h11.52c4.587 0 8.32-3.733 8.32-8.32v-11.52c0-4.587-3.733-8.32-8.32-8.32zM10.24 3.2h11.52c3.895 0 7.040 3.145 7.040 7.040v11.52c0 3.895-3.145 7.040-7.040 7.040h-11.52c-3.895 0-7.040-3.145-7.040-7.040v-11.52c0-3.895 3.145-7.040 7.040-7.040zM23.68 7.040c-0.707 0-1.28 0.573-1.28 1.28s0.573 1.28 1.28 1.28c0.707 0 1.28-0.573 1.28-1.28s-0.573-1.28-1.28-1.28zM16 8.96c-3.88 0-7.040 3.159-7.040 7.040s3.159 7.040 7.040 7.040c3.881 0 7.040-3.16 7.040-7.040s-3.16-7.040-7.040-7.040zM16 10.24c3.189 0 5.76 2.571 5.76 5.76s-2.571 5.76-5.76 5.76c-3.189 0-5.76-2.571-5.76-5.76s2.571-5.76 5.76-5.76z"></path>
</symbol>
<symbol id="icon-trojmiasto" viewBox="0 0 83 32">
<path d="M32.933 17.536c-1.135 0-2.012 0.511-2.37 1.524h-0.041c-0.258-0.973-1.065-1.524-2.16-1.524-1.016 0-1.762 0.35-2.37 1.222h-0.040v-0.972h-2.3v9.495h2.41v-6.257c0-1.093 0.488-1.614 1.254-1.614 0.678 0 0.936 0.431 0.936 1.223v6.648h2.41v-6.257c0-1.093 0.488-1.614 1.254-1.614 0.677 0 0.946 0.431 0.946 1.223v6.648h2.389v-6.909c0-1.824-0.736-2.837-2.319-2.837zM16.117 17.536c-2.749 0-3.694 1.754-3.694 4.994 0 3.309 0.807 5.063 3.694 5.003 2.758 0 3.704-1.754 3.704-5.003-0.001-3.299-0.807-5.045-3.704-4.994zM16.117 25.869c-1.185 0-1.284-1.394-1.284-3.339s0.098-3.33 1.284-3.33c0.976 0 1.294 0.963 1.294 3.33s-0.319 3.339-1.294 3.339zM57.794 15.058h-2.399v2.728h-1.225v1.654h1.225v5.445c0 1.926 0.349 2.508 2.23 2.508 0.557 0 1.046-0.050 1.573-0.111v-1.694c-0.159 0.020-0.358 0.040-0.548 0.040-0.697 0-0.856-0.3-0.856-1.042v-5.145h1.404v-1.654h-1.404v-2.728zM20.288 16.614h2.399v-2.086h-2.399v2.086zM5.224 15.058h-2.41v2.728h-1.214v1.654h1.214v5.445c0 1.926 0.349 2.508 2.23 2.508 0.558 0 1.055-0.050 1.574-0.111v-1.694c-0.159 0.020-0.349 0.040-0.538 0.040-0.697 0-0.855-0.3-0.855-1.042v-5.145h1.394v-1.654h-1.394v-2.728zM12.562 17.576c-0.14-0.019-0.298-0.040-0.438-0.040-0.985 0-1.673 0.602-2.16 1.524h-0.030v-1.274h-2.3v9.495h2.399v-5.706c0-1.274 0.946-1.715 1.782-1.715 0.239 0 0.508 0.020 0.747 0.030v-2.315zM20.288 27.112c0 1.043-0.090 1.524-0.946 1.524-0.14 0-0.258 0-0.388-0.040v1.765c0.358 0.019 0.707 0.040 0.985 0.040 2.161 0 2.749-0.873 2.749-2.457v-10.158h-2.399v9.326zM46.264 20.444c0-1.705-0.538-2.908-3.394-2.908-1.813 0-3.296 0.742-3.296 2.928v0.23h2.161v-0.271c0-0.732 0.378-1.223 1.115-1.223 0.806 0 1.115 0.442 1.115 1.153 0 0.642-0.239 0.922-0.955 1.114l-1.364 0.371c-1.653 0.461-2.37 1.183-2.37 2.968 0 1.274 0.598 2.727 2.27 2.727 1.145 0 1.832-0.25 2.389-1.234h0.030c0.070 0.311 0.14 0.682 0.299 0.983h2.3c-0.25-0.542-0.299-0.952-0.299-1.834v-5.004zM43.964 24.404c0 1.044-0.836 1.465-1.483 1.465s-0.906-0.602-0.906-1.324c0-0.851 0.388-1.323 1.364-1.534 0.298-0.070 0.697-0.231 1.025-0.482v1.874zM63.13 17.536c-2.758 0-3.694 1.754-3.694 4.994 0 3.309 0.797 5.063 3.694 5.003 2.748 0 3.694-1.754 3.694-5.003 0-3.299-0.806-5.045-3.694-4.994zM63.13 25.869c-1.185 0-1.294-1.394-1.294-3.339s0.11-3.33 1.294-3.33c0.976 0 1.284 0.963 1.284 3.33s-0.308 3.339-1.284 3.339zM36.258 27.282h2.4v-9.496h-2.4v9.496zM51.979 21.827l-1.443-0.502c-0.807-0.26-1.046-0.651-1.046-1.113 0-0.662 0.518-1.014 1.125-1.014 0.786 0 1.066 0.472 1.066 1.424h2.161v-0.391c0-1.704-1.026-2.697-3.206-2.697-2.47 0-3.446 1.294-3.446 2.858 0 1.344 0.678 2.176 2.002 2.647l1.693 0.622c0.468 0.181 0.866 0.461 0.866 1.073 0 0.762-0.487 1.134-1.214 1.134-0.826 0-1.254-0.542-1.254-1.374v-0.32h-2.17v0.341c0 1.815 0.756 3.018 3.454 3.018 2.021 0 3.484-0.992 3.484-2.988 0.002-1.433-0.556-2.206-2.069-2.717zM36.258 16.614h2.4v-2.086h-2.4v2.086zM47.111 17.786c-2.609-9.065-8.642-10.228-13.074-9.285-3.086 0.651-6.342-6.738-11.917-6.899-2.44-0.070-5.327 1.083-8.832 5.184 6.074-3.81 10.654-2.768 13.332 0.742l4.818 6.307c6.352-3.169 10.444-4.262 15.672 3.95z"></path>
<path d="M75.825 17.536c-0.946 0-1.603 0.37-2.13 1.253h-0.030v-1.003h-2.299v12.615h2.399v-4.002h0.040c0.508 0.762 1.115 1.134 2.021 1.134 1.971 0 2.878-1.464 2.878-5.004 0-3.53-0.906-4.993-2.878-4.993zM75.038 25.657c-1.065 0-1.274-1.062-1.274-3.128s0.21-3.118 1.274-3.118c1.046 0 1.254 1.052 1.254 3.118s-0.21 3.128-1.254 3.128zM79.2 14.668v12.614h2.4v-12.614h-2.4z"></path>
<path d="M68.946 23.442c-1.106 0-2.002 0.902-2.002 2.006 0 1.114 0.896 2.016 2.002 2.016 1.095 0 1.99-0.902 1.99-2.016 0-1.103-0.895-2.006-1.99-2.006z"></path>
</symbol>
<symbol id="icon-TripAdvisor" viewBox="0 0 150 32">
<path d="M149.585 21.383c-0.467 0-0.846 0.379-0.846 0.846s0.379 0.846 0.846 0.846c0.467 0 0.846-0.379 0.846-0.846s-0.379-0.846-0.846-0.846zM149.585 22.94c-0.393 0-0.712-0.32-0.712-0.712 0-0.393 0.32-0.712 0.712-0.712 0.393 0 0.713 0.32 0.713 0.712s-0.32 0.712-0.713 0.712zM149.86 22.084c0-0.154-0.109-0.245-0.27-0.245h-0.27v0.771h0.132v-0.279h0.145l0.139 0.279h0.143l-0.154-0.307c0.082-0.038 0.134-0.113 0.134-0.218zM149.585 22.21h-0.131v-0.256h0.131c0.089 0 0.143 0.045 0.143 0.127-0 0.084-0.055 0.129-0.143 0.129zM47.698 12.825v-2.045h-3.136v12.167h3.136v-7.296c0-1.321 0.847-1.97 2.169-1.97h1.716v-2.901h-1.466c-1.148-0-2.145 0.599-2.419 2.045zM54.52 5.967c-1.073 0-1.895 0.847-1.895 1.92 0 1.048 0.822 1.895 1.895 1.895s1.895-0.847 1.895-1.895c-0-1.073-0.822-1.92-1.895-1.92zM52.956 22.947h3.129v-12.167h-3.129v12.167zM70.986 16.863c0 3.474-2.816 6.289-6.289 6.289-1.402 0-2.673-0.459-3.692-1.235v4.602h-3.128v-15.739h3.128v1.030c1.019-0.776 2.29-1.235 3.692-1.235 3.474 0 6.289 2.816 6.289 6.289zM67.838 16.863c0-1.886-1.53-3.416-3.416-3.416s-3.416 1.53-3.416 3.416c0 1.886 1.53 3.416 3.416 3.416s3.416-1.528 3.416-3.416zM125.361 15.796l-1.825-0.501c-1.201-0.313-1.668-0.681-1.668-1.316 0-0.619 0.658-1.051 1.598-1.051 0.896 0 1.598 0.586 1.598 1.337v0.070h2.884v-0.070c0-2.208-1.8-3.692-4.482-3.692-2.655 0-4.584 1.482-4.584 3.525 0 1.589 1.053 2.787 2.891 3.284l1.748 0.477c1.328 0.368 1.822 0.776 1.822 1.507 0 0.771-0.713 1.289-1.775 1.289-1.107 0-1.852-0.701-1.852-1.741v-0.070h-3.061v0.070c0 2.496 2.009 4.24 4.888 4.24 2.773 0 4.786-1.704 4.786-4.049-0-1.151-0.515-2.657-2.968-3.311zM82.085 10.78h3.128v12.167h-3.128v-1.030c-1.019 0.776-2.29 1.235-3.692 1.235-3.473 0-6.289-2.816-6.289-6.289s2.816-6.289 6.289-6.289c1.402 0 2.673 0.459 3.692 1.235v-1.030zM82.085 16.863v0c0-1.888-1.53-3.416-3.416-3.416s-3.416 1.53-3.416 3.416c0 1.886 1.53 3.416 3.416 3.416 1.888 0 3.416-1.528 3.416-3.416zM96.51 6.45h3.129v16.499h-3.129v-1.030c-1.019 0.776-2.29 1.235-3.692 1.235-3.474 0-6.289-2.816-6.289-6.289s2.816-6.289 6.289-6.289c1.402 0 2.673 0.459 3.692 1.235v-5.361zM96.51 16.863c0-1.886-1.53-3.416-3.416-3.416s-3.416 1.53-3.416 3.416c0 1.886 1.528 3.416 3.416 3.416 1.886 0 3.416-1.528 3.416-3.416zM114.163 22.947h3.128v-12.167h-3.128v12.167zM115.727 5.967c-1.073 0-1.895 0.847-1.895 1.92 0 1.048 0.822 1.895 1.895 1.895s1.895-0.847 1.895-1.895c0-1.073-0.822-1.92-1.895-1.92zM141.851 16.863c0 3.474-2.816 6.289-6.289 6.289s-6.289-2.816-6.289-6.289 2.816-6.289 6.289-6.289c3.474 0 6.289 2.816 6.289 6.289zM138.978 16.863c0-1.886-1.53-3.416-3.416-3.416s-3.416 1.53-3.416 3.416c0 1.886 1.528 3.416 3.416 3.416 1.886 0 3.416-1.528 3.416-3.416zM46.096 6.45h-12.001v2.791h4.443v13.706h3.118v-13.706h4.443v-2.791h-0.002zM106.787 19.615l-2.783-8.835h-3.286l4.174 12.167h3.765l4.199-12.167h-3.286l-2.783 8.835zM146.435 12.825v-2.045h-3.136v12.167h3.136v-7.296c0-1.321 0.847-1.97 2.168-1.97h1.716v-2.901h-1.466c-1.148-0-2.143 0.599-2.419 2.045z"></path>
<path d="M25.882 12.879l1.931-2.101h-4.282c-2.143-1.464-4.732-2.317-7.532-2.317-2.796 0-5.377 0.855-7.517 2.317h-4.292l1.931 2.101c-1.183 1.080-1.925 2.635-1.925 4.362 0 3.259 2.642 5.901 5.901 5.901 1.548 0 2.959-0.597 4.012-1.573l1.891 2.059 1.891-2.058c1.053 0.976 2.462 1.571 4.010 1.571 3.259 0 5.905-2.642 5.905-5.901 0.002-1.729-0.74-3.284-1.924-4.362zM10.099 21.234c-2.206 0-3.994-1.788-3.994-3.994s1.788-3.994 3.994-3.994c2.206 0 3.994 1.788 3.994 3.994s-1.788 3.994-3.994 3.994zM16.002 17.124c0-2.628-1.911-4.884-4.434-5.848 1.364-0.57 2.86-0.887 4.432-0.887s3.069 0.316 4.434 0.887c-2.521 0.965-4.432 3.22-4.432 5.848zM21.903 21.234c-2.206 0-3.994-1.788-3.994-3.994s1.788-3.994 3.994-3.994 3.994 1.788 3.994 3.994-1.788 3.994-3.994 3.994zM21.903 15.145c-1.157 0-2.093 0.937-2.093 2.093s0.937 2.093 2.093 2.093c1.157 0 2.093-0.937 2.093-2.093-0-1.155-0.937-2.093-2.093-2.093zM12.192 17.241c0 1.157-0.937 2.093-2.093 2.093s-2.093-0.937-2.093-2.093c0-1.157 0.937-2.093 2.093-2.093 1.157-0.002 2.093 0.937 2.093 2.093z"></path>
</symbol>
<symbol id="icon-burger-menu" viewBox="0 0 32 32">
 <path d="M-1.333 6.667h29.333v1.667h-21.333v-1.667z"></path> 
  <path d="M1.333 14.667h29.333v1.667h-26.8.333v-1.667z"></path> 
  <path d="M-1.333 22.667h29.333v1.667h-21.333v-1.667z"></path>
  </symbol>
  <symbol id="icon-close" viewBox="0 0 32 32">
<path d="M4.94 4.020l-0.92 0.92 11.060 11.060-11.060 11.060 0.92 0.92 11.060-11.060 11.060 11.060 0.92-0.92-11.060-11.060 11.060-11.060-0.92-0.92-11.060 11.060z"></path>
</symbol>
  <symbol id="icon-right-arrow" viewBox="0 0 32 32">
<path d="M17.1 8.375l-0.95 0.95 6.15 6.175h-16.275v1.325h16.075l-5.95 6 0.95 0.95 7.675-7.7-0.025-0.025 0.025-0.025-7.675-7.65zM16.025 0c-8.825 0-15.975 7.175-15.975 16s7.15 16 15.975 16c8.825 0 15.975-7.175 15.975-16-0.025-8.825-7.175-16-15.975-16zM16.025 30.675c-8.1 0-14.65-6.575-14.65-14.675s6.55-14.675 14.65-14.675c8.075 0 14.65 6.575 14.65 14.675-0.025 8.1-6.575 14.675-14.65 14.675z"></path>
</symbol>
<symbol id="icon-wine-glasses" viewBox="0 0 32 32">
<path d="M14.817 29.328c0-0.516-1.487-0.95-3.516-1.084v-11.347c3.102-1.089 5.44-5.921 5.44-11.718 0-1.855-0.239-3.612-0.667-5.178h-12.201c-0.427 1.567-0.667 3.323-0.667 5.178 0 5.797 2.338 10.63 5.441 11.718v11.347c-2.029 0.134-3.516 0.569-3.516 1.084 0 0.623 2.168 1.128 4.843 1.128s4.843-0.505 4.843-1.128z"></path>
<path d="M28.761 3.058l-10.329-2.159c0.251 1.296 0.379 2.651 0.379 4.045 0 4.226-1.171 7.991-3.058 10.358 0.566 1.242 1.338 2.206 2.28 2.776l-2.031 9.717c0.587 0.33 0.884 0.764 0.884 1.299 0 1.070-1.227 1.612-2.683 1.879 0.681 0.242 1.484 0.467 2.354 0.649 2.618 0.547 4.843 0.497 4.971-0.113 0.105-0.505-1.261-1.234-3.22-1.781l2.322-11.107c3.259-0.431 6.537-4.683 7.723-10.357 0.379-1.816 0.504-3.584 0.407-5.205z"></path>
</symbol>
<symbol id="icon-star" viewBox="0 0 32 32">
<path d="M15.982 23.868l-9.842 6.934 3.671-11.458-9.635-7.092h11.932l3.874-11.532 3.874 11.532h11.932l-9.638 7.092 3.674 11.458z"></path>
<path d="M25.246 20.426c0.489-0.119 0.936-0.115 1.371-0.074 0.433 0.046 0.849 0.141 1.251 0.277s0.79 0.315 1.161 0.543c0.369 0.232 0.726 0.502 1.040 0.897-0.49 0.121-0.937 0.117-1.371 0.076-0.433-0.046-0.849-0.141-1.251-0.279s-0.789-0.317-1.16-0.544c-0.369-0.233-0.726-0.503-1.041-0.896z"></path>
<path d="M21.654 9.853c0.063-0.528 0.229-0.976 0.426-1.4 0.202-0.421 0.444-0.811 0.72-1.175s0.59-0.699 0.943-1.004c0.358-0.302 0.747-0.579 1.241-0.777-0.061 0.528-0.227 0.977-0.425 1.401-0.202 0.421-0.444 0.811-0.722 1.174s-0.591 0.698-0.945 1.003c-0.358 0.302-0.747 0.579-1.24 0.778z"></path>
<path d="M10.31 9.853c-0.492-0.198-0.882-0.476-1.24-0.778-0.354-0.305-0.667-0.641-0.945-1.003s-0.521-0.752-0.722-1.174c-0.198-0.424-0.363-0.873-0.425-1.401 0.494 0.197 0.883 0.475 1.241 0.777 0.354 0.305 0.667 0.641 0.943 1.004s0.519 0.753 0.72 1.175c0.198 0.424 0.364 0.873 0.426 1.4z"></path>
<path d="M6.718 20.426c-0.315 0.393-0.671 0.663-1.041 0.895-0.371 0.228-0.759 0.407-1.16 0.544s-0.818 0.233-1.251 0.279c-0.434 0.042-0.882 0.045-1.371-0.076 0.314-0.395 0.671-0.665 1.040-0.897 0.371-0.228 0.759-0.407 1.161-0.543s0.818-0.231 1.251-0.277c0.434-0.041 0.882-0.045 1.371 0.074z"></path>
<path d="M15.982 26.298c0.271 0.412 0.411 0.824 0.512 1.236 0.096 0.412 0.14 0.824 0.141 1.236s-0.044 0.824-0.139 1.236c-0.101 0.412-0.241 0.824-0.514 1.236-0.272-0.412-0.413-0.824-0.514-1.236-0.096-0.412-0.14-0.824-0.139-1.236s0.045-0.824 0.141-1.236c0.101-0.412 0.241-0.824 0.512-1.236z"></path>
<path d="M12.127 26.584c0.161-3.371 0.646-6.967 1.49-10.657 0.932-4.073 2.209-7.854 3.712-11.2l-1.347-4.007-3.876 11.531h-11.931l9.637 7.091-3.671 11.457 5.986-4.216z"></path>
</symbol>
<symbol id="icon-hearts" viewBox="0 0 45 32">
<path d="M35.106 15.472c-0.38 0.199-0.765 0.392-1.149 0.587-0.070 0.033-0.155 0.007-0.188-0.063l-0.558-1.123c-0.894-1.821-1.566-3.195-3.653-3.959l-0.262-0.089c-0.595-0.185-1.197-0.266-1.784-0.24-0.587 0.022-1.156 0.151-1.677 0.38-0.528 0.233-1.008 0.569-1.415 1.012-0.384 0.417-0.702 0.931-0.923 1.536-0.030 0.081-0.059 0.166-0.085 0.251-0.558 1.788-0.259 3.76 0.421 5.729 0.683 1.983 1.751 3.967 2.718 5.765l0.007 0.011c0.373 0.691 0.731 1.355 1.064 2.020l1.33 2.645 3.442-1.636 0.912-0.425 1.175-0.536c1.13-0.513 2.371-1.078 3.531-1.658 0.436-0.218 0.872-0.447 1.296-0.676 0.417-0.229 0.816-0.458 1.193-0.691 0.366-0.225 0.705-0.454 1.012-0.68l0.004-0.004c0.303-0.225 0.572-0.447 0.794-0.661 0.358-0.347 0.65-0.72 0.872-1.108 0.236-0.406 0.399-0.831 0.495-1.259 0.092-0.406 0.126-0.82 0.111-1.23-0.018-0.425-0.096-0.846-0.222-1.252s-0.303-0.801-0.521-1.171c-0.218-0.369-0.484-0.717-0.783-1.027-0.355-0.366-0.761-0.683-1.211-0.938-0.428-0.244-0.901-0.432-1.4-0.543-1.762-0.399-3.014 0.247-4.536 1.030h-0.011zM15.575 7.69c-0.096 0.244-0.192 0.488-0.314 0.783l-0.332 0.816-0.816-0.336c-0.24-0.1-0.488-0.203-0.724-0.307-2.53-1.067-4.436-1.873-7.272-0.79-0.111 0.041-0.229 0.092-0.347 0.144-1.559 0.683-2.781 1.843-3.453 3.258-0.657 1.396-0.776 3.051-0.126 4.753 0.037 0.107 0.085 0.218 0.137 0.336 2.042 4.657 8.203 6.984 13.307 8.912 0.986 0.373 1.928 0.728 2.848 1.104l3.815 1.562 1.743-3.993c-1.729-3.376-3.243-7.154-2.153-10.648l0.107-0.321c0.299-0.82 0.731-1.518 1.256-2.087 0.554-0.602 1.215-1.064 1.943-1.381 0.698-0.307 1.455-0.476 2.231-0.51 0.753-0.033 1.522 0.063 2.275 0.288 0.011-0.089 0.018-0.174 0.026-0.259 0.122-1.4-0.159-2.637-0.717-3.679-0.55-1.027-1.374-1.865-2.349-2.471-0.99-0.617-2.135-0.994-3.313-1.097-1.355-0.107-2.759 0.14-4.026 0.816-2.179 1.175-2.885 2.947-3.745 5.104v0 0zM25.086 25.917l-1.873 4.288-5.404-2.212c-0.842-0.343-1.806-0.709-2.803-1.086-5.411-2.050-11.945-4.517-14.29-9.854-0.055-0.129-0.111-0.27-0.166-0.41-0.831-2.183-0.676-4.325 0.181-6.135 0.85-1.791 2.39-3.254 4.332-4.111 0.133-0.059 0.273-0.118 0.425-0.174 3.461-1.319 5.633-0.436 8.48 0.765v0c0.979-2.464 1.802-4.491 4.528-5.95 1.573-0.842 3.317-1.152 5.001-1.005 1.455 0.126 2.866 0.591 4.085 1.348 1.234 0.765 2.275 1.825 2.973 3.132 0.709 1.326 1.067 2.896 0.912 4.657-0.022 0.266-0.059 0.539-0.107 0.82 0.665 0.384 1.178 0.835 1.607 1.341 0.635 0.753 1.082 1.633 1.573 2.63 0.842-0.436 1.621-0.824 2.464-1.053 0.89-0.24 1.843-0.299 2.999-0.037 0.654 0.148 1.271 0.392 1.828 0.713 0.584 0.332 1.112 0.746 1.57 1.223 0.388 0.403 0.728 0.846 1.012 1.322s0.51 0.982 0.672 1.511c0.166 0.539 0.266 1.101 0.292 1.666 0.026 0.547-0.022 1.101-0.144 1.644-0.129 0.576-0.351 1.145-0.661 1.688-0.295 0.517-0.68 1.012-1.156 1.47-0.273 0.266-0.591 0.528-0.942 0.787-0.347 0.259-0.731 0.513-1.138 0.765-0.399 0.247-0.82 0.491-1.259 0.731-0.432 0.236-0.886 0.473-1.352 0.705-0.643 0.325-1.285 0.632-1.913 0.923-0.62 0.288-1.252 0.576-1.85 0.849-0.632 0.288-1.256 0.572-1.884 0.868l-4.728 2.246c-0.070 0.033-0.151 0.004-0.185-0.066l-1.969-3.911c-0.151-0.303-0.321-0.624-0.499-0.96l-0.561-1.045-0.052-0.081z"></path>
</symbol>
<symbol id="icon-easter" viewBox="0 0 32 32">
<path d="M27.954 19.177c-0.774 0-1.498 0.219-2.114 0.598-1.331-2.332-3.842-3.908-6.714-3.908h-1.105c-0.038-1.66-0.853-3.223-2.279-4.412 1.265-2.685 2.026-4.335 2.262-4.91 0.781-1.902-0.131-4.084-2.032-4.865-0.961-0.395-1.994-0.357-2.882 0.023-0.508-0.481-1.156-0.825-1.895-0.958-2.023-0.365-3.966 0.984-4.331 3.007-0.127 0.707-0.549 3.759-0.886 6.235-0.832 0.303-1.602 0.711-2.28 1.219-1.333 1-2.189 2.282-2.482 3.686-0.037-0.004-0.075-0.006-0.114-0.006-0.609 0-1.103 0.494-1.103 1.103s0.494 1.103 1.103 1.103c0.038 0 0.076-0.002 0.114-0.006 0.293 1.405 1.149 2.686 2.482 3.686 1.151 0.863 2.57 1.442 4.107 1.694-0.054 0.367-0.082 0.742-0.082 1.124 0 0.634 0.077 1.249 0.222 1.839h-0.222c-1.623 0-2.942 1.32-2.942 2.942s1.32 2.942 2.942 2.942h13.665c2.592 0 4.767-1.816 5.323-4.242 0.392 0.127 0.809 0.196 1.242 0.196 2.231 0 4.046-1.815 4.046-4.046s-1.815-4.046-4.046-4.046zM9.037 4.143c0.149-0.825 0.942-1.376 1.767-1.227 0.218 0.039 0.416 0.124 0.588 0.242-0.108 0.174-0.204 0.358-0.284 0.554-0.26 0.633-1.228 3.293-2.087 5.67-0.249 0.012-0.496 0.033-0.74 0.062 0.309-2.261 0.65-4.708 0.756-5.3zM5.024 19.008c-1.105-0.829-1.713-1.901-1.713-3.018s0.608-2.19 1.713-3.018c1.2-0.9 2.812-1.395 4.54-1.395 0.070 0 0.14 0.001 0.21 0.003l0.794 0.019 0.27-0.747c1.279-3.547 2.1-5.784 2.312-6.299 0.319-0.776 1.209-1.148 1.985-0.829s1.148 1.209 0.829 1.985c-0.242 0.588-1.142 2.534-2.604 5.627l-0.413 0.874 0.813 0.524c1.307 0.843 2.057 2.030 2.057 3.257 0 1.118-0.608 2.19-1.713 3.019-1.2 0.9-2.812 1.395-4.54 1.395s-3.34-0.496-4.54-1.395zM24.644 25.854c0 1.795-1.46 3.255-3.255 3.255h-4.102c-0.399 0-0.736-0.337-0.736-0.736s0.337-0.736 0.736-0.736h4.046v-2.207h-4.046c-1.623 0-2.943 1.32-2.943 2.942 0 0.254 0.032 0.5 0.093 0.736h-6.714c-0.399 0-0.736-0.337-0.736-0.736s0.337-0.736 0.736-0.736h4.046v-2.207h-1.523c-0.204-0.576-0.316-1.194-0.316-1.839 0-0.338 0.032-0.669 0.091-0.991 2.031-0.084 3.936-0.725 5.405-1.826 1.014-0.76 1.751-1.684 2.176-2.7h1.524c3.042 0 5.517 2.475 5.517 5.517v2.263zM27.954 25.062c-0.414 0-0.796-0.137-1.103-0.369v-1.102c0-0.576-0.064-1.138-0.184-1.679 0.332-0.326 0.787-0.528 1.288-0.528 1.014 0 1.839 0.825 1.839 1.839s-0.825 1.839-1.839 1.839z"></path>
<path d="M8.828 15.376c0 0.609-0.494 1.103-1.103 1.103s-1.103-0.494-1.103-1.103c0-0.609 0.494-1.103 1.103-1.103s1.103 0.494 1.103 1.103z"></path>
</symbol>
<symbol id="icon-champagne" viewBox="0 0 32 32">
<path d="M11.004 5.912c0.163-0.324 0.341-0.638 0.341-0.895 0-0.473 0-3.124 0-3.787s-0.937-1.231-2.436-1.231c-1.499 0-2.436 0.568-2.436 1.231s0 3.313 0 3.787c0 0.257 0.178 0.571 0.341 0.894 0 0.915 0 1.768 0 2.23 0 1.894-3.869 3.787-3.869 10.793 0 4.544 0 7.764 0 9.278 0 3.408 2.096 3.787 5.964 3.787s5.965-0.379 5.965-3.787c0-1.515 0-4.734 0-9.278 0-7.006-3.869-8.899-3.869-10.793-0-0.462-0-1.314-0-2.23zM12.773 18.745c0 5.68-0.168 5.491-3.864 8.142-3.696-2.651-3.864-2.462-3.864-8.142 1.512 1.136 2.52 0.758 3.864-1.136 1.344 1.894 2.352 2.272 3.864 1.136z"></path>
<path d="M18.804 14.055v0.519c0 2.161 0 4.668 0 5.705 0.003 0.637 0.21 1.4 0.59 2.166 0.382 0.762 0.943 1.52 1.703 2.061 0.446 0.316 0.831 0.625 1.080 0.903 0.125 0.139 0.215 0.268 0.27 0.379 0.054 0.112 0.074 0.201 0.074 0.283 0 0.691 0 1.469 0 2.075 0 0.063-0.016 0.139-0.063 0.235-0.080 0.167-0.259 0.38-0.498 0.584-0.358 0.307-0.837 0.595-1.241 0.804-0.202 0.104-0.386 0.191-0.527 0.253-0.138 0.061-0.247 0.103-0.254 0.105-0.243 0.086-0.369 0.253-0.447 0.4-0.077 0.153-0.113 0.311-0.114 0.482 0.001 0.188 0.048 0.405 0.207 0.599 0.157 0.197 0.434 0.314 0.691 0.308h7.313c0.256 0.006 0.533-0.11 0.691-0.308 0.159-0.195 0.206-0.411 0.207-0.599-0.001-0.17-0.037-0.329-0.114-0.482-0.078-0.148-0.204-0.315-0.448-0.401l0.001 0c-0.004-0-0.073-0.027-0.162-0.065-0.318-0.134-0.981-0.45-1.53-0.84-0.274-0.193-0.519-0.407-0.676-0.604-0.161-0.2-0.219-0.364-0.217-0.471 0-0.605 0-1.383 0-2.075 0-0.081 0.020-0.171 0.075-0.283 0.081-0.167 0.245-0.374 0.481-0.594 0.234-0.22 0.534-0.451 0.869-0.689 0.76-0.541 1.321-1.299 1.703-2.061 0.38-0.766 0.586-1.529 0.59-2.166 0-1.037 0-3.544 0-5.705v-0.519h-10.252zM28.019 20.279c0.004 0.401-0.157 1.064-0.48 1.702-0.32 0.643-0.797 1.269-1.376 1.678-0.473 0.336-0.909 0.676-1.251 1.056-0.171 0.19-0.319 0.392-0.43 0.616s-0.181 0.475-0.18 0.739c0 0.691 0 1.469 0 2.075 0 0.25 0.067 0.484 0.168 0.69 0.179 0.362 0.453 0.655 0.756 0.916 0.456 0.389 0.99 0.704 1.438 0.937 0.14 0.073 0.267 0.134 0.385 0.189h-6.236c0.387-0.181 0.917-0.458 1.416-0.81 0.325-0.231 0.636-0.493 0.885-0.801 0.246-0.306 0.444-0.679 0.446-1.12 0-0.605 0-1.383 0-2.075 0-0.264-0.070-0.515-0.18-0.739-0.166-0.336-0.414-0.623-0.703-0.895-0.289-0.27-0.623-0.526-0.978-0.777-0.58-0.41-1.056-1.036-1.376-1.678-0.322-0.639-0.483-1.302-0.48-1.702 0-0.955 0-3.157 0-5.186h8.177c0 2.030 0 4.231 0 5.186z"></path>
<path d="M23.93 23.261c1.647 0 2.982-1.335 2.982-2.982v-4.149h-5.965v4.149c0 1.647 1.335 2.982 2.982 2.982zM25.258 19.501c0.215 0 0.389 0.174 0.389 0.389s-0.174 0.389-0.389 0.389c-0.215 0-0.389-0.174-0.389-0.389s0.174-0.389 0.389-0.389zM23.896 20.933c0.319 0 0.577 0.258 0.577 0.577s-0.258 0.577-0.577 0.577c-0.319 0-0.577-0.258-0.577-0.577s0.258-0.577 0.577-0.577zM22.664 18.528c0.322 0 0.584 0.261 0.584 0.584s-0.261 0.584-0.584 0.584c-0.322 0-0.584-0.261-0.584-0.584s0.261-0.584 0.584-0.584z"></path>
</symbol>
<symbol id="icon-dom-perignon" viewBox="0 0 82 32">
<path fill="#dcca81" style="fill: var(--color1, #dcca81)" d="M4.941 1.641c-1.095 0.322-1.816 0.673-2.488 1.21-1.069 0.848-1.641 1.897-1.656 3.037-0.002 0.863 0.335 1.7 0.9 2.278 0.603 0.625 1.513 1.011 2.498 1.054 0.474 0.024 1.158-0.088 1.537-0.392 0.071-0.058 0.094-0.176 0.049-0.256-0.048-0.075-0.125-0.111-0.205-0.095l-0.144 0.020c-0.106 0.011-0.272 0.021-0.479-0.005-0.732-0.096-1.324-0.401-1.815-0.934-0.479-0.518-0.716-1.15-0.706-1.875 0.011-1.051 0.457-1.907 1.367-2.621 0.504-0.399 0.974-0.651 1.57-0.841 0.613-0.198 1.102-0.265 1.743-0.242 0.916 0.029 1.389 0.103 2.23 0.456 0.57 0.239 1.317 0.761 1.815 1.272 0.565 0.575 1.058 1.348 1.428 2.237 0.315 0.751 0.504 1.613 0.532 2.429 0.055 1.861-0.39 3.275-1.396 4.453-0.69 0.807-1.42 1.078-2.892 1.078-0.929 0-1.638-0.207-2.404-0.459l-0.228-0.073c0.215-0.137 0.591-0.412 0.827-0.659 0.369-0.394 0.663-0.743 0.993-1.26 0.283-0.448 0.425-0.752 0.619-1.222 0.33-0.792 0.441-1.164 0.619-2.098 0.148-0.785 0.232-1.688 0.232-2.611 0-0.004 0-0.007 0-0.011v0.001c-0-0.513-0.025-1.020-0.074-1.52l0.005 0.064c-0.017-0.113-0.071-0.153-0.101-0.168-0.066-0.038-0.142-0.021-0.207 0-0.356 0.099-1.153 0.571-1.326 0.764l-0.022 0.429c0.029 0.631 0.025 1.026 0.019 1.358-0.015 0.936-0.106 1.839-0.267 2.718l0.015-0.101-0.027 0.137c-0.132 0.689-0.334 1.729-0.839 2.679-0.407 0.765-0.873 1.126-1.467 1.135l-0.128-0.029c-0.046-0.012-0.161-0.013-0.222 0.005-0.541 0.166-0.895 0.61-1.033 0.938-0.042 0.123-0.004 0.224 0.103 0.28 0.187 0.052 0.736 0.181 0.956 0.219 0.464 0.099 1.4 0.23 1.41 0.231l0.257 0.033 0.315 0.031c0.289 0.036 0.467 0.037 0.822 0.043 2.596 0.034 4.422-0.704 5.786-2.324 0.326-0.394 0.605-0.845 0.818-1.33l0.014-0.037c0.389-0.884 0.553-1.763 0.516-2.768-0.070-1.712-0.828-3.405-2.078-4.646-1.439-1.427-3.24-2.2-5.354-2.295-0.898-0.044-1.673 0.047-2.437 0.282zM39.177 3.632c-0.192 0.080-1.091 0.711-1.252 1.159 0.158 0.958 0.538 3.248 0.624 4.359l0.043 0.493c0.028 0.391 0.037 0.741 0.032 1.242-0.005 0.36-0.061 1.094-0.162 1.519-0.111 0.474-0.22 0.772-0.376 1.025-0.576 0.936-1.283 0.733-1.652 0.527-0.315-0.187-0.518-0.546-0.538-0.961-0.021-0.437 0.166-0.841 0.499-1.083 0.151-0.083 0.197-0.117 0.175-0.248-0.099-0.264-0.373-0.41-0.756-0.41-0.272 0-0.82 0.16-1.133 0.759-0.275 0.596-0.264 1.199 0.028 1.693 0.2 0.346 0.448 0.624 1.003 0.862 0.507 0.212 1.013 0.187 1.155 0.174 1.853-0.18 2.608-1.633 2.893-2.18 0.293-0.578 0.459-1.435 0.488-1.986 0.026-0.423 0.022-0.798 0-1.267-0.017-0.328-0.037-0.601-0.062-0.873l0.006 0.083c-0.094-1-0.479-3.414-0.683-4.193l-0.024-0.093-0.036-0.149c-0.060-0.238-0.111-0.445-0.247-0.454l-0.024 0.002zM30.439 13.098c-0.057-0.058-0.153-0.066-0.248-0.020-0.343 0.139-0.595 0.208-0.787 0.219-0.075 0.003-0.196-0.007-0.262-0.028-0.208-0.066-0.337-0.348-0.34-0.352-0.102-0.249-0.188-0.759-0.248-1.474l-0.022-0.272c-0.059-0.757-0.127-1.618-0.582-2.098-0.107-0.12-0.258-0.212-0.364-0.269-0.82-0.272-1.393 0.040-2.108 0.67-0.087 0.065-0.119 0.060-0.157 0.021-0.097-0.123-0.414-0.515-0.607-0.629-0.783-0.408-1.497 0.056-2.069 0.432l-0.185 0.114c-0.071-0.005-0.087-0.041-0.095-0.092-0.032-0.166-0.067-0.353-0.208-0.498-0.313-0.144-0.648-0.091-0.938-0.029-0.14 0.028-0.301 0.058-0.45 0.058l-0.058 0.322 0.022 0.329c0.007 0.128-0.042 0.226-0.155 0.313-0.283 0.181-0.539 0.306-0.802 0.392-0.129 0.042-0.213-0.049-0.262-0.132-0.095-0.157-0.153-0.317-0.202-0.557-0.148-0.414-0.418-0.72-0.788-0.893-0.447-0.211-1.012-0.219-1.546-0.024-0.945 0.575-1.511 1.371-1.846 2.583-0.324 1.193-0.148 2.213 0.498 2.875 0.549 0.566 1.455 0.672 2.422 0.282 0.942-0.617 1.566-1.845 1.599-3.131 0.009-0.162 0.064-0.263 0.186-0.328 0.265-0.134 0.571-0.291 0.845-0.475 0.038-0.020 0.072-0.024 0.090-0.013l0.044 0.306c0.080 1.221 0.163 2.414 0.312 3.601l0.232 0.1c0.398 0.078 0.938 0.186 1.28-0.018l-0.252-3.961c0.171-0.608 0.753-0.61 0.935-0.596 0.193 0.045 0.36 0.244 0.48 0.578 0.216 0.56 0.248 1.262 0.279 1.941 0.017 0.396 0.038 0.824 0.092 1.213l0.027 0.231c0.032 0.26 0.062 0.507 0.136 0.607 0.24 0.045 0.393 0.055 0.571 0.079 0.201 0.033 0.581 0.065 0.861-0.079-0.081-0.557-0.108-1.109-0.119-1.585l-0.005-0.267-0.007-0.267-0.009-0.238-0.009-0.289c-0.007-0.376-0.026-0.863-0.11-1.305-0.005-0.169 0.043-0.268 0.14-0.355l0.074-0.090c0.068-0.082 0.097-0.102 0.153-0.136 0.271-0.116 0.485-0.082 0.683 0.057 0.367 0.447 0.446 1.030 0.504 1.693l0.030 0.4 0.007 0.095 0.029 0.35c0.077 0.876 0.275 1.447 0.602 1.742 0.309 0.281 0.629 0.384 1.139 0.369 0.682-0.070 1.242-0.746 1.515-1.145l0.054-0.088c0.022-0.036 0.035-0.080 0.036-0.126v-0c0-0.001 0-0.003 0-0.005 0-0.042-0.016-0.080-0.042-0.108l0 0zM19.041 11.36c-0.031 0.458-0.244 0.908-0.653 1.377-0.42 0.401-1.023 0.404-1.399 0.198-0.486-0.272-0.821-0.9-0.851-1.597 0.009-0.996 0.275-1.601 0.864-1.954 0.101-0.032 0.317-0.046 0.513 0.048 0.146 0.072 0.253 0.135 0.295 0.231-0.050 0.124-0.080 0.267-0.081 0.418v0.001c0 0.216 0.137 0.455 0.202 0.57 0.226 0.359 0.555 0.528 0.971 0.53 0.044 0.002 0.079 0.015 0.102 0.040 0.025 0.026 0.038 0.067 0.038 0.123v0.017zM81.209 13.065c-0.058-0.053-0.143-0.058-0.223-0.014-0.152 0.084-0.327 0.151-0.513 0.189l-0.012 0.002c-0.239 0.069-0.561 0.028-0.752-0.211-0.115-0.157-0.234-0.738-0.329-1.633l-0.031-0.332c-0.067-0.751-0.13-1.462-0.563-1.957-0.145-0.164-0.29-0.276-0.467-0.364-0.694-0.256-1.104 0.039-1.672 0.448l-0.204 0.146c-0.102 0.030-0.118 0.013-0.135-0.017-0.050-0.114-0.091-0.294-0.091-0.294-0.049-0.199-0.158-0.283-0.323-0.3l-0.178-0.004c-0.34-0.014-0.648-0.017-0.987 0.063-0.064 0.193-0.066 0.317-0.066 0.443l0.005 0.309c0 0.18-0.053 0.264-0.202 0.352-0.252 0.137-0.49 0.239-0.724 0.309-0.127 0.032-0.183 0.006-0.226-0.086-0.077-0.188-0.131-0.346-0.204-0.602-0.108-0.391-0.336-0.681-0.675-0.858-0.44-0.242-1.034-0.26-1.627-0.053-1.015 0.579-1.68 1.393-2.102 2.567-0.167 0.462-0.252 0.931-0.252 1.376 0 0.117 0.007 0.233 0.018 0.346-0.080 0.092-0.164 0.175-0.265 0.26-0.229 0.152-0.617 0.091-0.834-0.13-0.193-0.215-0.25-1.314-0.273-1.785-0.021-0.439-0.065-0.912-0.117-1.263-0.053-0.349-0.245-0.975-0.949-1.235-0.625-0.234-1.193 0.090-1.929 0.573-0.096 0.063-0.132 0.058-0.142 0.054-0.018-0.010-0.032-0.045-0.040-0.101-0.019-0.157-0.029-0.239-0.046-0.323-0.033-0.136-0.141-0.207-0.321-0.217-0.426 0.003-0.808 0.012-1.195 0.103-0.041 0.525-0 0.94 0.052 1.48 0.015 0.244-0.043 0.289-0.288 0.478-0.147 0.119-0.519 0.418-0.81 0.694-0.073 0.071-0.136 0.1-0.171 0.086-0.034-0.012-0.053-0.065-0.057-0.139l-0.056-0.615-0.031-0.367c-0.028-0.269-0.063-0.722-0.092-1.175l-0.007-0.132v-0.112c0-0.109 0.009-0.202 0.016-0.283l0.005-0.228-0.004-0.099c-0.003-0.072-0.031-0.127-0.082-0.162-0.027-0.022-0.081-0.047-0.163-0.032-0.19 0.139-0.428 0.351-0.652 0.588-0.546-0.227-1.256-0.101-2.171 0.384-1.166 0.759-1.888 1.897-1.982 3.124-0.021 0.21-0.063 0.322-0.169 0.459-0.1 0.117-0.213 0.242-0.369 0.355-0.090 0.091-0.241 0.128-0.413 0.106-0.18-0.018-0.348-0.106-0.415-0.213-0.165-0.862-0.203-1.768-0.246-2.729l-0.017-0.392c-0.012-0.253-0.023-0.517-0.042-0.779-0.132-0.468-0.53-0.432-0.916-0.398-0.206 0.020-0.422 0.038-0.578 0.003-0.087 0.032-0.096 0.050-0.096 0.076l0.062 1.24 0.087 1.832c-0.005 0.17-0.027 0.285-0.123 0.412-0.27 0.344-0.523 0.645-0.873 0.835-0.355 0.247-0.98 0.138-1.214-0.050-0.307-0.256-0.414-0.729-0.414-1.243 0-0.7 0.197-1.476 0.361-1.899 0.050-0.087 0.111-0.174 0.171-0.256l0.062-0.089c0.15-0.22 0.263-0.387 0.326-0.579l0.002-0.087c0-0.121-0.025-0.198-0.081-0.243-0.028-0.028-0.072-0.045-0.127-0.050-0.18 0.091-0.338 0.19-0.547 0.326-0.415 0.275-0.828 0.545-1.296 0.615-0.086 0-0.136-0.024-0.152-0.044-0.022-0.121-0.012-0.171-0.005-0.209l0.019-0.189c0-0.301-0.149-0.578-0.367-0.67-0.255-0.068-0.757-0.022-1.066 0.575-0.074 0.144-0.126 0.311-0.148 0.488l-0.001 0.007-0.007 0.156c0 0.337 0.217 0.677 0.501 0.808-0.34 0.793-0.779 1.372-1.215 1.863-0.766 0.671-1.451 1.268-2.527 1.002-0.449-0.17-0.751-0.558-0.85-1.097l-0.008-0.098c0-0.081 0.058-0.116 0.109-0.131 0.745-0.181 1.464-0.386 2.053-0.887 0.278-0.235 0.568-0.641 0.658-0.925 0.049-0.132 0.077-0.285 0.077-0.444 0-0.004-0-0.009-0-0.013v0.001c0-0.168-0.031-0.336-0.094-0.503-0.121-0.312-0.436-0.595-0.764-0.69-0.831-0.186-1.761 0.242-2.617 1.205-0.125 0.153-0.745 0.963-0.94 2.043-0.532 0.636-1.069 1.078-1.793 1.476-0.148 0.090-0.191 0.179-0.191 0.268 0 0.046 0.012 0.094 0.035 0.135 0.059 0.11 0.19 0.183 0.328 0.114 0.605-0.31 1.136-0.713 1.4-0.928l0.088-0.075c0.066-0.011 0.093 0.028 0.107 0.112 0.010 0.093 0.041 0.252 0.074 0.358 0.162 0.538 0.52 0.92 1.101 1.169 1.957 0.559 3.526-0.967 4.109-1.649 0.649-0.736 1.042-1.322 1.437-2.084 0.317-0.048 0.598-0.119 0.869-0.213l-0.034 0.010c0.106-0.035 0.161-0.026 0.176-0.009 0.006 0.046-0.001 0.078-0.022 0.121l-0.052 0.115c-0.307 0.629-0.622 1.278-0.622 2.043 0 0.105 0.006 0.214 0.019 0.323 0.087 0.764 0.415 1.184 1.092 1.403 0.554 0.118 1.083 0.038 1.491-0.22 0.31-0.206 0.903-0.633 1.411-1.185 0.045-0.039 0.087-0.048 0.108-0.037l0.025 0.099 0.050 0.313c0.151 0.687 0.595 1.063 1.264 1.090 0.616 0 1.194-0.388 1.771-1.188 0.024-0.034 0.058-0.051 0.087-0.047 0.19 0.514 0.424 1.015 1.045 1.202 1.137 0.259 1.979-0.253 2.486-0.73 0.058-0.054 0.105-0.063 0.128-0.054 0.023 0.009 0.038 0.042 0.042 0.091 0.038 0.52 0.056 0.974 0.056 1.405 0 1.011-0.104 1.758-0.299 2.16-0.168 0.394-0.335 0.791-0.635 0.98-0.223 0.143-0.471 0.211-0.854 0.234-0.154 0.008-0.624-0.078-0.777-0.436-0.067-0.151-0.107-0.327-0.108-0.512v-0.001l0.005-0.098c0.014-0.401 0.196-0.772 0.54-1.099 0.078-0.078 0.103-0.137 0.103-0.198 0-0.037-0.010-0.075-0.029-0.107-0.050-0.086-0.152-0.123-0.259-0.093-0.823 0.371-1.468 1.136-1.649 1.956-0.159 0.583 0.057 1.157 0.562 1.495 0.705 0.408 1.357 0.171 2.073-0.155 2.468-1.355 2.783-3.774 2.783-5.731 0-0.223-0.008-0.487-0.015-0.72-0.002-0.124-0.008-0.463 0.103-0.582 0.281-0.293 0.628-0.594 0.935-0.858l0.152-0.132c0.060-0.053 0.109-0.070 0.128-0.062l0.048 0.223c0.071 0.631 0.146 1.393 0.202 2.039l0.033 0.365c0.016 0.239 0.029 0.366 0.106 0.437 0.204 0.343 1.412 0.174 1.424 0.17 0.059-0.108 0.061-0.189 0.061-0.264-0.015-0.965-0.296-3.6-0.345-4.036 0.24-0.364 0.526-0.52 0.881-0.475 0.12 0.024 0.221 0.066 0.306 0.131 0.077 0.063 0.123 0.129 0.16 0.228 0.102 0.237 0.172 0.586 0.224 1.101l0.005 0.089c0.030 0.208 0.040 0.433 0.052 0.67l0.018 0.336c0.079 1.125 0.16 2.287 1.225 2.287 0.559-0.014 1.050-0.263 1.545-0.783l0.078-0.087c0.049-0.048 0.085-0.070 0.109-0.067 0.037 0.004 0.083 0.071 0.115 0.12 0.067 0.105 0.134 0.206 0.216 0.294 0.52 0.563 1.439 0.67 2.456 0.283 1.045-0.637 1.767-1.847 1.895-3.16 0.022-0.137 0.058-0.22 0.186-0.279l0.105-0.050c0.244-0.118 0.545-0.264 0.825-0.436 0.135 0.603 0.203 1.139 0.264 1.611 0.061 0.495 0.125 1.007 0.167 1.511l0.031 0.281c0.035 0.321 0.077 0.549 0.165 0.624 0.258 0.122 0.747 0.102 1.179 0.085l0.227-0.008-0.302-4.347c0.208-0.322 0.394-0.486 0.768-0.436 0.224 0.046 0.373 0.17 0.455 0.38 0.138 0.279 0.239 0.645 0.292 1.061l0.029 0.214c0.041 0.303 0.066 0.487 0.098 0.832l0.008 0.090c0.087 0.987 0.188 2.104 1.283 2.264 0.729-0.018 1.361-0.437 1.939-1.283 0.043-0.092 0.031-0.179-0.026-0.233zM43.316 11.441c-0.002-0.962 0.341-1.957 1.107-2.12 0.192-0.022 0.396 0.081 0.503 0.261 0.056 0.095 0.090 0.224 0.090 0.341 0 0.251-0.094 0.511-0.273 0.751-0.292 0.389-0.78 0.673-1.368 0.801l-0.059-0.034zM59.428 13.217c-0.285 0.208-0.596 0.394-0.955 0.336-0.525-0.301-0.781-0.834-0.781-1.628 0-0.382 0.021-0.691 0.064-0.967 0.073-0.375 0.309-0.877 0.668-1.158 0.163-0.082 0.481-0.164 0.691-0.092 0.314 0.084 0.468 0.475 0.569 0.808 0.032 0.299 0.090 0.826 0.090 1.341-0 0.587-0.074 1.16-0.346 1.361zM72.897 11.197c-0.066 0.519-0.363 1.095-0.792 1.538-0.421 0.36-0.978 0.437-1.415 0.2-0.436-0.252-0.717-0.829-0.717-1.468l0.006-0.112c0.097-1.012 0.422-1.618 1.051-1.972 0.090-0.022 0.301-0.038 0.488 0.065 0.118 0.069 0.2 0.118 0.234 0.217-0.064 0.131-0.102 0.284-0.103 0.447v0c0 0.181 0.082 0.39 0.242 0.622 0.183 0.253 0.457 0.372 0.813 0.352 0.077-0.003 0.146-0.004 0.173 0.025l0.019 0.086zM52.951 5.899c-0.086 0.079-0.18 0.198-0.237 0.284-0.048 0.116-0.070 0.276-0.070 0.393 0 0.077 0.022 0.19 0.036 0.249 0.165 0.437 0.58 0.69 1.026 0.641 0.537-0.109 0.725-0.615 0.725-1.050 0-0.073-0.003-0.129-0.012-0.183-0.089-0.239-0.271-0.406-0.505-0.475-0.352-0.107-0.677-0.061-0.964 0.14zM45.657 5.166c-0.093 0.046-0.157 0.119-0.206 0.236-0.149 0.665-0.623 1.337-0.825 1.624-0.196 0.292-0.332 0.495-0.449 0.87l0.039 0.111c0.075 0.083 0.116 0.082 0.222 0.060 0.808-0.492 1.7-1.369 2.102-1.935 0.056-0.12 0.088-0.26 0.088-0.408 0 0 0 0 0 0v0c0.002-0.137 0.002-0.182-0.044-0.326-0.042-0.127-0.137-0.226-0.257-0.274l-0.003-0.001c-0.137-0.061-0.569-0.007-0.667 0.043zM38.527 1.227c-0.855 0.005-3.808 0.186-5.919 2.425-1.573 1.748-1.072 3.185-0.881 3.584 0.66 1.367 2.136 1.666 3.198 1.505 0.835-0.127 1.378-0.52 1.525-0.638 0.077-0.048 0.091-0.157 0.064-0.234-0.029-0.083-0.096-0.132-0.178-0.13l-0.349 0.069c-0.982 0.173-2.577-0.147-2.94-1.738-0.135-0.702 0.089-1.559 0.569-2.182 0.446-0.578 1.021-1.038 1.709-1.362 0.882-0.417 1.939-0.628 2.902-0.579 1.575 0.085 2.766 0.665 3.354 1.631 0.409 0.667 0.561 1.817-0.352 2.87-0.159 0.183-0.224 0.256-0.33 0.348-0.169 0.136-0.268 0.217-0.305 0.279-0.045 0.065-0.079 0.14-0.027 0.242 0.043 0.077 0.135 0.121 0.22 0.108 0.713-0.235 1.246-0.566 1.716-1.049 0.53-0.548 0.886-1.34 0.886-1.974 0-0.355-0.045-0.656-0.138-0.895-0.562-1.434-2.329-2.284-4.726-2.28zM45.042 25.014c-0.008-1.443-0.635-2.72-0.76-2.959-0.275 0.635-0.916 1.131-1.644 1.131-0.713 0-1.331-0.446-1.585-1.080-0.097 0.146-0.181 0.27-0.181 0.27-0.302 0.487-0.835 0.809-1.441 0.809-0.733-0.001-1.367-0.469-1.61-1.132-0.198 0.265-1.147 1.973-0.675 4.328 0 0 0.441 2.464 2.41 3.864 0 0 0.797 0.584 1.46 0.726 0 0 0.354-0.045 0.96-0.407 0 0 0.463-0.243 0.956-0.679 1.418-1.255 1.859-2.885 1.991-3.644 0.047-0.262 0.085-0.552 0.107-0.828 0-0.032 0.004-0.061 0.006-0.093l0.004-0.144 0.002-0.124v-0.037z"></path>
<path fill="#dcca81" style="fill: var(--color1, #dcca81)" d="M45.042 25.014c-0.008-1.443-0.635-2.72-0.76-2.959-0.275 0.635-0.916 1.131-1.644 1.131-0.713 0-1.331-0.446-1.585-1.080-0.097 0.146-0.181 0.27-0.181 0.27-0.302 0.487-0.835 0.809-1.441 0.809-0.733-0.001-1.367-0.469-1.61-1.132-0.198 0.265-1.147 1.973-0.675 4.328 0 0 0.441 2.464 2.41 3.864 0 0 0.797 0.584 1.46 0.726 0 0 0.354-0.045 0.96-0.407 0 0 0.463-0.243 0.956-0.679 1.418-1.255 1.859-2.885 1.991-3.644 0.047-0.262 0.085-0.552 0.107-0.828 0-0.032 0.004-0.061 0.006-0.093l0.004-0.144 0.002-0.124v-0.037z"></path>
</symbol>
</defs>
</svg>
